# xmcd
#
# Track frame offsets:
#	150
#	11782
#	22986
#	40873
#	52352
#	63216
#	72662
#	87252
#	101098
#	111447
#	123701
#	134794
#	150040
#	165278
#	183193
#
# Disc length: 2633 seconds
#
# Revision: 0
# Processed by: cddbd v1.5PL3 Copyright (c) Steve Scherf et al.
# Submitted via: audiograbber 1.81.03
#
DISCID=ce0a470f
DTITLE=Connie Francis - The Wedding Cake
DYEAR=1967
DGENRE=Country
TTITLE0=The Wedding Cake
TTITLE1=My Most Favorite Things
TTITLE2=Wings Of My Love
TTITLE3=Betty Jo Marshall
TTITLE4=Love Colored Eyes
TTITLE5=You Know You're Not Foresaken
TTITLE6=Gone Like The Wind
TTITLE7=Springtime
TTITLE8=What Mama Used To Do
TTITLE9=Blank Colored Pages
TTITLE10=Another Page
TTITLE11=Bonus: Overhill Underground
TTITLE12=Bonus: Yearbooks And Yesterday Friends
TTITLE13=Bonus: Lincoln Street Chapel
TTITLE14=Bonus: Milk And Honey
EXTD=
EXTT0=
EXTT1=
EXTT2=
EXTT3=
EXTT4=
EXTT5=
EXTT6=
EXTT7=
EXTT8=
EXTT9=
EXTT10=
EXTT11=
EXTT12=
EXTT13=
EXTT14=
PLAYORDER=
